<svg class="bluebic-logo" width="134" height="45" xmlns="http://www.w3.org/2000/svg" xmlns:xlink="http://www.w3.org/1999/xlink"><use xlink:href="#path0_fill" transform="translate(0 4.79)" fill="#1C75BB"/><use xlink:href="#path1_fill" transform="translate(10.68 24.89)" fill="url(#paint1_linear)"/><use xlink:href="#path2_fill" transform="translate(4.85 7.66)" fill="url(#paint2_linear)"/><use xlink:href="#path3_fill" transform="translate(24.28 24.89)" fill="url(#paint3_linear)"/><use xlink:href="#path4_fill" transform="translate(25.25 11.49)" fill="url(#paint4_linear)"/><use xlink:href="#path5_fill" transform="translate(18.45 37.34)" fill="#27A9E0"/><use xlink:href="#path6_fill" transform="translate(24.28 1.91)" fill="#1C75BB"/><use xlink:href="#path7_fill" transform="translate(26.22)" fill="#1C75BB"/><use xlink:href="#path8_fill" transform="translate(19.42 8.62)" fill="#FEFEFE"/><use xlink:href="#path9_fill" transform="translate(19.42 21.06)" fill="#FEFEFE"/><use xlink:href="#path10_fill" transform="translate(19.42 40.21)" fill="#FEFEFE"/><use xlink:href="#path11_fill" transform="translate(19.42 40.21)" fill="#FEFEFE"/><use xlink:href="#path12_fill" transform="translate(19.42 39.26)" fill="#FEFEFE"/><g><use xlink:href="#path13_fill" transform="translate(41.51 28.02)" fill="#1C75BB"/><use xlink:href="#path14_fill" transform="translate(60.14 28.02)" fill="#1C75BB"/><use xlink:href="#path15_fill" transform="translate(64.31 31.79)" fill="#1C75BB"/><use xlink:href="#path16_fill" transform="translate(80.05 31.79)" fill="#1C75BB"/><use xlink:href="#path17_fill" transform="translate(96.75 28.02)" fill="#1C75BB"/><use xlink:href="#path18_fill" transform="translate(114.73 26.13)" fill="url(#paint18_linear)"/><use xlink:href="#path19_fill" transform="translate(115.37 32.73)" fill="#1C75BB"/><use xlink:href="#path20_fill" transform="translate(119.55 31.79)" fill="#1C75BB"/></g><defs><linearGradient id="paint1_linear" x2="1" gradientUnits="userSpaceOnUse" gradientTransform="matrix(9.56261 -17.463 17.7104 9.429 0 5.003)"><stop offset="0" stop-color="#FAD961"/><stop offset="1" stop-color="#F76B1C"/></linearGradient><linearGradient id="paint2_linear" x2="1" gradientUnits="userSpaceOnUse" gradientTransform="matrix(17.9299 -32.7431 33.2071 17.6794 0 9.381)"><stop offset="0" stop-color="#FAD961"/><stop offset="1" stop-color="#F76B1C"/></linearGradient><linearGradient id="paint3_linear" x2="1" gradientUnits="userSpaceOnUse" gradientTransform="matrix(9.56261 -17.463 17.7104 9.429 0 5.003)"><stop offset="0" stop-color="#FAD961"/><stop offset="1" stop-color="#F76B1C"/></linearGradient><linearGradient id="paint4_linear" x2="1" gradientUnits="userSpaceOnUse" gradientTransform="matrix(20.3206 -26.1945 37.6347 14.1435 0 7.505)"><stop offset="0" stop-color="#FAD961"/><stop offset="1" stop-color="#F76B1C"/></linearGradient><linearGradient id="paint18_linear" x2="1" gradientUnits="userSpaceOnUse" gradientTransform="matrix(0 4.71774 -4.81714 0 2.409 0)"><stop offset="0" stop-color="#FAD961"/><stop offset="1" stop-color="#F76B1C"/></linearGradient><path id="path0_fill" fill-rule="evenodd" d="M43.884 12.09c-.643.787-1.454 1.372-2.32 1.883-1.355.796-2.813 1.359-4.3 1.85-2.815.929-5.702 1.542-8.637 1.945a6.651 6.651 0 0 1-.584.055c-.186.009-.374.002-.56.002-.002.014-.002.029-.003.043-.357-.033-.717-.041-1.068-.103-.893-.156-1.153-.593-.845-1.443.425-1.178.868-2.35 1.321-3.518a20.187 20.187 0 0 1 1.719-3.39c.766-1.223 1.662-2.344 2.646-3.405.682-.737 1.503-1.048 2.458-1.132 1.327-.115 2.635.056 3.941.251 1.377.207 2.71.561 3.964 1.178.854.421 1.62.958 2.266 1.669 1.173 1.288.962 2.937.002 4.114zM31.02 21.803c.365.331.7.708.988 1.106.61.84.525 1.771-.184 2.535-.416.448-.925.767-1.462 1.046-1.73.9-3.575 1.375-5.64 1.495-.337-.05-.785-.116-1.235-.185-.163-.024-.225-.117-.223-.287.03-1.56.05-3.122.082-4.682.005-.157.064-.318.124-.467.17-.422.373-.831.531-1.258.299-.801.918-1.136 1.717-1.18 2.025-.111 3.801.516 5.302 1.877zm-7.86-16.33c-.605 1.926-1.048 3.894-1.405 5.878-.361 2.007-.701 4.02-.986 6.04a197.9 197.9 0 0 0-.79 6.462c-.224 2.07-.395 4.145-.59 6.216-.006.055-.015.108-.022.163l-.071-.006c.001-4.93.373-9.831 1.201-14.696.645-3.781 1.534-7.502 2.915-11.09l.074.022c-.11.337-.22.672-.325 1.01zm-3.387 10.492c-.185 2.058-.37 4.116-.553 6.173-.391-2.1-.188-4.16.553-6.173zm-1.07 10.943c-.003.071-.075.162-.141.203-.49.308-1.259.49-1.72.46-1.308-.051-2.36-.499-3.362-1.078-1.152-.665-2.248-1.41-3.157-2.396-.447-.487-.88-.985-1.099-1.624-.294-.86-.064-1.654.67-2.188 1.305-.948 2.776-1.41 4.39-1.404 1.026.004 2.029.14 2.967.593.688.333 1.069.838 1.116 1.633a59.63 59.63 0 0 0 .35 3.931c.081.634.009 1.248-.014 1.87zM7.625 12.005C6.278 11.03 4.984 9.987 3.88 8.736c-.686-.779-1.29-1.615-1.653-2.602-.507-1.376-.142-3 1.41-3.845 1.118-.611 2.327-.858 3.585-.938 1.518-.098 3.006.123 4.486.422 1.023.207 2.039.447 2.987.897.293.14.57.313.847.485.36.226.616.55.807.927a19.033 19.033 0 0 1 1.415 3.76c.44 1.669.646 3.367.693 5.088.008.317.001.635.001.951h.04v2.05c0 .957-.374 1.295-1.315 1.17-.817-.111-1.573-.422-2.304-.78-2.533-1.246-4.967-2.66-7.254-4.316zM46.34 8.733c-.43-1.02-1.167-1.794-2.035-2.452-1.383-1.047-2.954-1.714-4.598-2.219a25.501 25.501 0 0 0-3.66-.827c-2.635-.398-5.283.624-7.002 2.667l-.023.026c-1.513 1.792-2.518 3.885-3.34 6.065-.527 1.393-1.032 2.794-1.548 4.19-.029.077-.074.148-.137.272-.026-.092-.045-.122-.04-.15.758-5.426 2.057-10.715 4.088-15.84-.075-.018-.114-.032-.153-.037a4.754 4.754 0 0 0-.268-.02c-1.221-.05-2.396.22-3.564.524-.078.02-.162.11-.196.187-.195.456-.387.914-.563 1.378-1.508 3.996-2.534 8.12-3.245 12.326-.013.078-.045.155-.069.232-.066-.06-.087-.112-.087-.164-.004-.342-.004-.684-.004-1.025-.004-1.938-.04-3.872-.377-5.788-.3-1.703-1.401-5.838-2.732-6.674C15.22.42 9.04-.198 6.518.058 5.132.198 3.78.483 2.534 1.14 1.656 1.604.867 2.177.444 3.116c-.62 1.371-.558 2.766-.015 4.131.623 1.563 1.666 2.847 2.89 3.98 1.631 1.511 3.451 2.769 5.353 3.915 1.584.953 3.168 1.907 4.854 2.677.042.02.07.073.142.15-.143.02-.235.037-.328.043-1.185.087-2.343.31-3.454.734-.89.34-1.733.767-2.371 1.501-.608.698-.911 1.488-.567 2.41.306.82.807 1.524 1.413 2.147 1.003 1.033 2.112 1.936 3.368 2.648 1.017.575 2.055 1.09 3.226 1.293.977.17 1.93.15 2.855-.234.268-.11.521-.25.83-.402 0 .16.002.276 0 .393-.027 1.496-.05 2.994-.087 4.49-.006.233.078.333.293.392.472.13.948.164 1.427.084 1.163-.197 2.087-.835 2.94-1.604.178-.16.217-.334.2-.56-.045-.649-.07-1.3-.1-1.95-.003-.066.015-.132.024-.2.058.006.084.004.105.011a7.032 7.032 0 0 0 2.8.299 14.378 14.378 0 0 0 3.71-.83c1.255-.468 2.462-1.018 3.501-1.902.967-.821 1.277-1.772.869-2.934-.25-.708-.697-1.283-1.224-1.802-1-.987-2.189-1.685-3.47-2.24-.075-.03-.14-.079-.21-.119l.014-.07c.148-.022.296-.041.443-.064 3.228-.492 6.41-1.182 9.492-2.27 1.698-.6 3.309-1.373 4.716-2.523 1.035-.846 1.872-1.833 2.274-3.135.293-.949.382-1.9-.016-2.842z"/><path id="path1_fill" fill-rule="evenodd" d="M.638 1.237c-.59.47-.775 1.17-.538 1.927.176.564.524 1.002.884 1.431.731.87 1.613 1.525 2.54 2.111.805.51 1.653.905 2.705.95.371.027.99-.134 1.384-.405.053-.036.11-.116.113-.179.019-.548.077-1.089.012-1.647a57.173 57.173 0 0 1-.282-3.464c-.038-.7-.344-1.146-.898-1.438C5.803.123 4.996.003 4.171 0h-.025C2.857 0 1.682.407.638 1.237z"/><path id="path2_fill" fill-rule="evenodd" d="M4.602.021c-1.11.074-2.18.298-3.168.853C.064 1.644-.26 3.118.189 4.37c.322.897.855 1.657 1.46 2.365.976 1.138 2.12 2.085 3.309 2.971 2.02 1.506 4.171 2.792 6.409 3.924.647.326 1.314.608 2.036.709.831.114 1.162-.194 1.162-1.063v-1.864h-.036c0-.287.007-.576 0-.864-.042-1.565-.224-3.108-.612-4.625a17.613 17.613 0 0 0-1.25-3.419c-.17-.343-.396-.637-.714-.842a7.712 7.712 0 0 0-.748-.441C10.367.811 9.47.594 8.566.405 7.472.178 6.374 0 5.258 0c-.218 0-.437.007-.656.021z"/><path id="path3_fill" fill-rule="evenodd" d="M2.083.012C1.404.053.879.372.626 1.132.49 1.536.32 1.925.175 2.325c-.052.142-.101.294-.105.443C.042 4.25.025 5.731 0 7.211c-.002.162.05.25.19.274l1.047.175c1.753-.114 3.319-.565 4.788-1.42.455-.263.887-.567 1.24-.992.603-.724.675-1.609.157-2.406a6.703 6.703 0 0 0-.839-1.049C5.405.6 4.028 0 2.468 0c-.127 0-.256.004-.385.012z"/><path id="path4_fill" fill-rule="evenodd" d="M7.093.033c-.819.074-1.524.349-2.109.998a20.166 20.166 0 0 0-2.27 3.003 18.064 18.064 0 0 0-1.474 2.99C.85 8.054.47 9.087.107 10.126c-.265.75-.042 1.135.724 1.272.302.055.61.063.917.091 0-.012 0-.025.002-.038.16 0 .321.006.481-.002.167-.008.335-.024.501-.048 2.517-.355 4.995-.896 7.41-1.715 1.275-.433 2.525-.93 3.688-1.631.743-.45 1.439-.967 1.99-1.662.824-1.038 1.005-2.492-.001-3.628-.555-.627-1.212-1.1-1.945-1.472C12.8.75 11.655.436 10.474.254 9.605.121 8.735 0 7.858 0c-.254 0-.509.01-.765.033z"/><path id="path5_fill" fill-rule="evenodd" d="M1.082 2.322l.028-.062c-.067-.036-.14-.108-.2-.097-.076.012-.14.094-.21.146l.038.065.344-.052zm.228.515c0-.182-.141-.34-.309-.345-.168-.005-.313.145-.319.331-.006.197.143.366.318.361.165-.004.31-.166.31-.347zm-.048 2.2C1.012 4.43.77 3.89.756 3.234c.439.25.742 1.292.506 1.803zM4.855 0c-1.04 2.37-2.172 4.834-2.287 7.66C1.733 7.005.124 3.239 0 1.603c.214.077.42.175.634.225.957.223 1.85-.013 2.66-.57C3.864.864 4.384.382 4.855 0z"/><path id="path6_fill" fill-rule="evenodd" d="M0 1.907C.687-.015 3.302-.477 4.855.489c-.163.301-.323.608-.498.908-.026.044-.137.09-.193.08-1.308-.256-2.543.019-3.774.341-.115.03-.227.065-.342.096C.034 1.918.016 1.91 0 1.907z"/><path id="path7_fill" fill-rule="evenodd" d="M0 1.686C.537.824 1.192.172 2.371.021c.21-.026.43-.027.642-.006.533.054.85.353.87.79.016.354-.156.826-.412 1.11C2.42 1.133 1.25 1.309 0 1.686z"/><path id="path8_fill" fill-rule="evenodd" d="M0 25.845c.001-4.941.433-9.855 1.393-14.73C2.139 7.325 3.169 3.595 4.769 0l.086.02c-.126.338-.254.675-.377 1.013-.7 1.932-1.215 3.904-1.628 5.892-.42 2.013-.813 4.03-1.143 6.054a172.885 172.885 0 0 0-.915 6.478c-.26 2.074-.458 4.154-.684 6.23-.007.056-.018.11-.026.164L0 25.845z"/><path id="path9_fill" fill-rule="evenodd" d="M.253 5.745C-.254 3.79.009 1.874.97 0 .731 1.915.491 3.83.253 5.745z"/><path id="path10_fill" fill-rule="evenodd" d="M.835 1.915C.423 1.269.021.697 0 0c.724.265 1.225 1.372.835 1.915z"/><path id="path11_fill" fill-rule="evenodd" d="M.971.478c0 .25-.224.473-.48.48a.488.488 0 0 1-.49-.5A.482.482 0 0 1 .493 0 .493.493 0 0 1 .97.478z"/><path id="path12_fill" fill-rule="evenodd" d="M.844.313L.085.415 0 .288C.153.186.297.026.463.002c.134-.02.294.12.443.19l-.062.12z"/><path id="path13_fill" fill-rule="evenodd" d="M10.72 13.985c.949 0 1.67-.2 2.164-.598.493-.398.74-.96.74-1.684s-.247-1.29-.74-1.695c-.494-.406-1.215-.609-2.165-.609H3.53v4.586h7.19zm-.068-7.465c.304 0 .601.01.89.033.498-.464.747-.993.747-1.587 0-.616-.247-1.092-.74-1.43-.494-.336-1.216-.504-2.166-.504H3.53V6.52h7.123zM0 0h9.294c1.135 0 2.124.118 2.966.353.843.236 1.542.56 2.099.973.556.413.97.904 1.24 1.472.271.569.407 1.183.407 1.842 0 1.08-.349 2.025-1.046 2.836.801.464 1.398 1.065 1.792 1.804.393.739.59 1.58.59 2.52 0 .79-.136 1.504-.407 2.141a4.227 4.227 0 0 1-1.235 1.636c-.553.453-1.25.8-2.093 1.043-.842.242-1.834.364-2.977.364H0V0z"/><path id="path14_fill" fill-rule="evenodd" d="M0 16.984h2.89V0H0v16.984z"/><path id="path15_fill" fill-rule="evenodd" d="M0 0h3.2v6.335c0 .602.066 1.15.196 1.644.13.495.352.919.667 1.27.315.353.734.626 1.258.82.525.195 1.178.292 1.959.292.369 0 .743-.04 1.123-.121a6.33 6.33 0 0 0 1.09-.335c.347-.144.67-.314.971-.512a4.2 4.2 0 0 0 .776-.649V0h3.211v12.99H11.24v-1.111a8.887 8.887 0 0 1-2.376 1.023 9.094 9.094 0 0 1-2.268.308c-1.171 0-2.175-.144-3.01-.43-.836-.285-1.52-.701-2.05-1.248-.532-.546-.921-1.217-1.167-2.013C.123 8.724 0 7.817 0 6.797V0z"/><path id="path16_fill" fill-rule="evenodd" d="M12.075 5.319a3.214 3.214 0 0 0-.527-.99 3.497 3.497 0 0 0-.888-.8 4.511 4.511 0 0 0-1.235-.534A5.76 5.76 0 0 0 7.883 2.8a6.04 6.04 0 0 0-1.628.205c-.49.137-.918.32-1.287.552-.369.23-.675.497-.92.8a3.088 3.088 0 0 0-.537.962h8.564zM0 6.56c0-.864.174-1.69.521-2.48a6.288 6.288 0 0 1 1.5-2.092c.653-.605 1.453-1.088 2.4-1.448C5.366.18 6.442 0 7.648 0c1.199 0 2.278.182 3.24.546.96.364 1.776.863 2.446 1.497a6.493 6.493 0 0 1 1.543 2.238c.358.858.537 1.776.537 2.756 0 .123-.002.254-.005.395a4.1 4.1 0 0 1-.027.384H3.51c.135.382.352.73.654 1.048.301.317.679.591 1.133.822.454.23.979.409 1.574.535a9.57 9.57 0 0 0 1.979.189c.724 0 1.443-.077 2.16-.232a15.64 15.64 0 0 0 2.053-.59l1.064 2.443c-.412.195-.829.366-1.25.514-.422.148-.862.27-1.32.367-.457.098-.935.171-1.435.222-.5.05-1.027.076-1.58.076-1.412 0-2.65-.174-3.713-.52-1.064-.345-1.954-.817-2.67-1.416A5.833 5.833 0 0 1 .542 9.167 6.3 6.3 0 0 1 0 6.56z"/><path id="path17_fill" fill-rule="evenodd" d="M10.719 13.985c.95 0 1.671-.2 2.165-.598.493-.398.74-.96.74-1.684s-.247-1.29-.74-1.695c-.494-.406-1.216-.609-2.165-.609h-7.19v4.586h7.19zm-.067-7.465c.304 0 .6.01.89.033.498-.464.746-.993.746-1.587 0-.616-.247-1.092-.74-1.43-.494-.336-1.216-.504-2.165-.504H3.528V6.52h7.124zM0 0h9.294c1.135 0 2.124.118 2.966.353.843.236 1.542.56 2.098.973.557.413.97.904 1.242 1.472.27.569.406 1.183.406 1.842 0 1.08-.349 2.025-1.046 2.836.8.464 1.398 1.065 1.792 1.804.393.739.59 1.58.59 2.52 0 .79-.136 1.504-.407 2.141a4.227 4.227 0 0 1-1.235 1.636c-.553.453-1.25.8-2.093 1.043-.842.242-1.834.364-2.977.364H0V0z"/><path id="path18_fill" fill-rule="evenodd" d="M1.407.188A2.337 2.337 0 0 0 .651.69c-.209.21-.37.458-.482.744A2.493 2.493 0 0 0 0 2.36c0 .32.056.624.169.909.112.285.273.536.482.751.208.215.46.386.756.51.297.126.628.189.995.189.376 0 .71-.063 1.008-.188.295-.125.548-.296.756-.51.209-.216.37-.467.482-.752.113-.285.17-.588.17-.909a2.5 2.5 0 0 0-.17-.924 2.183 2.183 0 0 0-.482-.744A2.344 2.344 0 0 0 3.41.188 2.573 2.573 0 0 0 2.402 0c-.367 0-.698.063-.995.188z"/><path id="path19_fill" fill-rule="evenodd" d="M0 12.266h2.89V0H0v12.266z"/><path id="path20_fill" fill-rule="evenodd" d="M0 6.637c0-.937.18-1.81.537-2.621A5.904 5.904 0 0 1 2.11 1.908C2.8 1.313 3.643.847 4.642.508 5.64.17 6.78 0 8.062 0a15.336 15.336 0 0 1 3.319.373c.524.119 1.016.26 1.476.421.46.163.86.341 1.199.536l-1.55 2.41a11.662 11.662 0 0 0-2.074-.713A8.745 8.745 0 0 0 8.447 2.8c-.769 0-1.459.095-2.07.286-.61.191-1.128.458-1.554.8-.426.343-.75.746-.972 1.21a3.47 3.47 0 0 0-.334 1.52c0 .547.118 1.053.356 1.518.237.465.573.865 1.007 1.2.433.335.957.598 1.571.79.615.19 1.299.286 2.053.286.829 0 1.611-.112 2.346-.335a9.348 9.348 0 0 0 2.052-.898l1.55 2.411a11.821 11.821 0 0 1-2.8 1.157c-.53.144-1.088.257-1.673.34a12.94 12.94 0 0 1-1.815.125c-1.274 0-2.416-.166-3.426-.498-1.01-.331-1.866-.79-2.567-1.378A5.997 5.997 0 0 1 .56 9.254 6.113 6.113 0 0 1 0 6.636z"/></defs></svg>